<svg width="41" height="41" viewBox="0 0 41 41" fill="none" xmlns="http://www.w3.org/2000/svg">
<path d="M35.2237 4.48242H5.7646C5.05614 4.48242 4.48376 5.05479 4.48376 5.76325V35.2224C4.48376 35.9308 5.05614 36.5032 5.7646 36.5032H35.2237C35.9322 36.5032 36.5045 35.9308 36.5045 35.2224V5.76325C36.5045 5.05479 35.9322 4.48242 35.2237 4.48242ZM31.5253 13.8285H28.9677C26.9624 13.8285 26.5741 14.7811 26.5741 16.182V19.268H31.3612L30.7368 24.0991H26.5741V36.5032H21.5829V24.1032H17.4082V19.268H21.5829V15.7057C21.5829 11.571 24.1085 9.31756 27.7989 9.31756C29.568 9.31756 31.085 9.44965 31.5293 9.50968V13.8285H31.5253Z" fill="white"/>
</svg>
