<svg width="41" height="41" viewBox="0 0 41 41" fill="none" xmlns="http://www.w3.org/2000/svg">
<path d="M35.2249 4.48242H5.76579C5.05733 4.48242 4.48495 5.05479 4.48495 5.76325V35.2224C4.48495 35.9308 5.05733 36.5032 5.76579 36.5032H35.2249C35.9334 36.5032 36.5057 35.9308 36.5057 35.2224V5.76325C36.5057 5.05479 35.9334 4.48242 35.2249 4.48242ZM13.9831 31.7681H9.23204V16.4862H13.9831V31.7681ZM11.6096 14.3969C11.0649 14.3969 10.5325 14.2353 10.0797 13.9328C9.6268 13.6302 9.27384 13.2001 9.06541 12.6969C8.85698 12.1937 8.80245 11.64 8.9087 11.1058C9.01496 10.5716 9.27723 10.081 9.66236 9.69585C10.0475 9.31072 10.5382 9.04845 11.0723 8.94219C11.6065 8.83594 12.1602 8.89047 12.6634 9.0989C13.1666 9.30733 13.5967 9.66029 13.8993 10.1131C14.2019 10.566 14.3634 11.0984 14.3634 11.6431C14.3594 13.1641 13.1266 14.3969 11.6096 14.3969ZM31.7707 31.7681H27.0236V24.3353C27.0236 22.5622 26.9916 20.2847 24.554 20.2847C22.0844 20.2847 21.7041 22.2139 21.7041 24.2072V31.7681H16.9611V16.4862H21.516V18.5756H21.58C22.2125 17.3748 23.7615 16.106 26.075 16.106C30.8861 16.106 31.7707 19.272 31.7707 23.3867V31.7681Z" fill="white"/>
</svg>
