<svg width="46" height="46" viewBox="0 0 46 46" fill="none" xmlns="http://www.w3.org/2000/svg">
<path d="M23 26.8333C27.2282 26.8333 30.6667 23.3948 30.6667 19.1667C30.6667 14.9385 27.2282 11.5 23 11.5C18.7718 11.5 15.3333 14.9385 15.3333 19.1667C15.3333 23.3948 18.7718 26.8333 23 26.8333ZM23 15.3333C25.1141 15.3333 26.8333 17.0526 26.8333 19.1667C26.8333 21.2807 25.1141 23 23 23C20.8859 23 19.1667 21.2807 19.1667 19.1667C19.1667 17.0526 20.8859 15.3333 23 15.3333Z" fill="white"/>
<path d="M21.8884 41.8098C22.2128 42.0415 22.6014 42.166 23.0001 42.166C23.3987 42.166 23.7873 42.0415 24.1117 41.8098C24.6944 41.3978 38.389 31.5097 38.3334 19.1663C38.3334 10.7119 31.4545 3.83301 23.0001 3.83301C14.5457 3.83301 7.66673 10.7119 7.66673 19.1568C7.61115 31.5097 21.3057 41.3978 21.8884 41.8098ZM23.0001 7.66634C29.3423 7.66634 34.5001 12.8241 34.5001 19.1759C34.5403 27.6821 26.0897 35.32 23.0001 37.8251C19.9123 35.3181 11.4598 27.6783 11.5001 19.1663C11.5001 12.8241 16.6578 7.66634 23.0001 7.66634Z" fill="white"/>
</svg>
