<svg width="41" height="41" viewBox="0 0 41 41" fill="none" xmlns="http://www.w3.org/2000/svg">
<path d="M37.1449 10.1789C35.9201 10.7073 34.5873 11.0875 33.2144 11.2356C34.6398 10.3888 35.7072 9.05101 36.2163 7.47319C34.8788 8.26886 33.4135 8.8268 31.8855 9.12226C31.2469 8.43952 30.4745 7.89562 29.6165 7.52445C28.7584 7.15328 27.8332 6.9628 26.8983 6.96486C23.1158 6.96486 20.0739 10.0308 20.0739 13.7933C20.0739 14.3216 20.1379 14.85 20.242 15.3583C14.5783 15.0621 9.52702 12.3564 6.16884 8.21367C5.55694 9.25881 5.23629 10.4488 5.24023 11.6599C5.24023 14.0294 6.44502 16.1188 8.28221 17.3476C7.19952 17.305 6.14219 17.0074 5.19621 16.479V16.5631C5.19621 19.8812 7.54173 22.631 10.6678 23.2634C10.0808 23.4159 9.47701 23.4939 8.87059 23.4956C8.4263 23.4956 8.00603 23.4516 7.58175 23.3915C8.44631 26.0973 10.9639 28.0626 13.9619 28.1266C11.6164 29.9638 8.67846 31.0445 5.48839 31.0445C4.91602 31.0445 4.38768 31.0245 3.83932 30.9604C6.86529 32.9017 10.4556 34.0224 14.3221 34.0224C26.8743 34.0224 33.7427 23.6237 33.7427 14.5978C33.7427 14.3016 33.7427 14.0054 33.7227 13.7092C35.0516 12.7366 36.2163 11.5318 37.1449 10.1789Z" fill="white"/>
</svg>
