<svg width="83" height="33" viewBox="0 0 83 33" fill="none" xmlns="http://www.w3.org/2000/svg">
<g clip-path="url(#clip0_62_2790)">
<path d="M0 0V2.25559H16.1558V0H0ZM18.4448 0V2.25559H41.4676C41.4676 2.25559 39.1159 0 36.0013 0H18.4448ZM45.9839 0V2.25559H59.9124L59.0856 0H45.9839ZM69.8983 0L69.0716 2.25559H82.8736V0H69.8983ZM0 4.38659V6.64218H16.1558V4.38659H0ZM18.4448 4.3898V6.64218H44.1391C44.1391 6.64218 43.8391 4.90621 43.3156 4.3898H18.4448ZM45.9839 4.3898V6.64218H61.4395L60.6743 4.3898H45.9839ZM68.2448 4.3898L67.4797 6.64218H82.8736V4.3898H68.2448ZM4.64281 8.77317V11.0317H11.6395V8.77317H4.64281ZM23.0876 8.77317V11.0317H30.0843V8.77317H23.0876ZM36.8896 8.77317V11.0317H43.8862C43.8862 11.0317 44.3304 9.83883 44.3304 8.77301H36.8896V8.77317ZM50.6268 8.77317V11.0317H63.0314L62.2046 8.77301H50.6268V8.77317ZM66.721 8.77317L65.891 11.0318H78.3572V8.77317H66.721ZM4.64281 13.163V15.4182H11.6395V13.163H4.64281ZM23.0876 13.163V15.4182H40.9586C40.9586 15.4182 42.4535 14.2608 42.9298 13.1627H23.0876V13.163ZM50.6268 13.163V15.4182H57.6234V14.1626L58.0676 15.4182H70.8839L71.3605 14.1626V15.4182H78.3572V13.163H65.2231L64.526 15.0736L63.8257 13.163H50.6268ZM4.64281 17.5492V19.8048H11.6395V17.5492H4.64281ZM23.0876 17.5492V19.8048H42.9298C42.4534 18.7102 40.9586 17.5492 40.9586 17.5492H23.0876ZM50.6268 17.5492V19.8048H57.6234V17.5492H50.6268ZM58.8943 17.5492L59.7405 19.8048H69.3504L70.1545 17.5492H58.8943ZM71.3605 17.5492V19.8048H78.3572V17.5492H71.3605ZM4.64281 21.9358V24.1914H11.6395V21.9358H4.64281ZM23.0876 21.9358V24.1914H30.0843V21.9358H23.0876ZM36.8896 21.9358V24.1914H44.3304C44.3304 23.1269 43.8862 21.9358 43.8862 21.9358H36.8896ZM50.6268 21.9358V24.1914H57.6234V21.9358H50.6268ZM60.483 21.9358L61.3033 24.1914H67.7455L68.5723 21.9358H60.483ZM71.3605 21.9358V24.1914H78.3572V21.9358H71.3605ZM0.126445 26.3226V28.5812H16.2823V26.3224H0.126445V26.3226ZM18.4448 26.3226V28.5812H43.3156C43.8391 28.064 44.1391 26.3224 44.1391 26.3224H18.4448V26.3226ZM46.1104 26.3226V28.5812H57.6234V26.3224H46.1104V26.3226ZM62.0749 26.3226L62.9179 28.5812H66.1957L66.9868 26.3224H62.0749V26.3226ZM71.3605 26.3226V28.5812H83V26.3224H71.3605V26.3226ZM0.126445 30.7122V32.9678H16.2823V30.7122H0.126445ZM18.4448 30.7122V32.9644H36.0013C39.1159 32.9644 41.4676 30.7121 41.4676 30.7121H18.4448V30.7122ZM46.1104 30.7122V32.9678H57.6234V30.7122H46.1104ZM63.6733 30.7122L64.4839 32.9612L64.6233 32.9644L65.4468 30.7121H63.6733V30.7122ZM71.3605 30.7122V32.9678H83V30.7122H71.3605Z" fill="#1F70C1"/>
</g>
<defs>
<clipPath id="clip0_62_2790">
<rect width="83" height="33" fill="white"/>
</clipPath>
</defs>
</svg>
