<svg width="47" height="51" viewBox="0 0 47 51" fill="none" xmlns="http://www.w3.org/2000/svg">
<g clip-path="url(#clip0_62_2788)">
<path d="M43.7025 41.2292C43.3482 43.8798 41.576 46.1733 39.0949 47.1926C37.8795 47.7016 36.5631 47.855 35.2464 47.7016C33.9807 47.549 32.7146 47.1412 31.3983 46.3775C29.5752 45.3571 27.7523 43.778 25.6257 41.4334C28.9678 37.3054 30.9927 33.534 31.7526 30.1709C32.1071 28.5909 32.1576 27.1638 32.006 25.8385C31.8036 24.5646 31.3478 23.392 30.6385 22.3729C29.0688 20.0798 26.4361 18.7545 23.4991 18.7545C20.5622 18.7545 17.9293 20.1308 16.3595 22.3729C15.6503 23.3922 15.1952 24.5646 14.9923 25.8385C14.79 27.1638 14.8405 28.6417 15.2457 30.1711C16.005 33.5338 18.0809 37.3564 21.3726 41.4837C19.2965 43.8288 17.4229 45.4085 15.5998 46.4279C14.2835 47.1926 13.0174 47.6004 11.7517 47.7526C10.4469 47.8993 9.12623 47.7246 7.9034 47.2436C5.42213 46.2243 3.65027 43.93 3.29557 41.2801C3.14392 40.0064 3.24508 38.7325 3.75143 37.3054C3.90308 36.7954 4.15662 36.2867 4.40943 35.6747C4.76413 34.8596 5.16932 33.9926 5.57396 33.126L5.625 33.0247C9.11843 25.4307 12.8658 17.6844 16.7647 10.1422L16.9166 9.83579C17.3218 9.07209 17.7264 8.25701 18.132 7.4922C18.5368 6.67657 18.9925 5.91193 19.5493 5.24893C20.6127 4.02567 22.0306 3.36323 23.6003 3.36323C25.17 3.36323 26.5877 4.02567 27.6511 5.24912C28.2081 5.91193 28.6638 6.67656 29.069 7.49238C29.4742 8.25701 29.8788 9.07209 30.284 9.83579L30.4364 10.1422C34.2844 17.7352 38.0317 25.4815 41.5255 33.0755V33.126C41.9307 33.9416 42.2848 34.8596 42.69 35.6747C42.9434 36.2867 43.1964 36.7952 43.348 37.3054C43.7532 38.6303 43.905 39.9049 43.7027 41.2292H43.7025ZM23.4991 38.8337C20.7651 35.3687 18.9925 32.1067 18.385 29.3555C18.1321 28.183 18.0809 27.1638 18.2333 26.2463C18.3343 25.4307 18.6385 24.7169 19.043 24.1049C20.0052 22.7301 21.6254 21.8622 23.4991 21.8622C25.3727 21.8622 27.0436 22.6784 27.955 24.1049C28.3598 24.7169 28.6638 25.4307 28.765 26.2463C28.9168 27.1638 28.8661 28.2339 28.6131 29.3555C28.0056 32.0563 26.2332 35.3179 23.4991 38.8337ZM46.3356 36.1839C46.0826 35.5723 45.8293 34.9101 45.5763 34.3494C45.1711 33.4325 44.7659 32.5655 44.4114 31.7499L44.3607 31.6995C40.8673 24.0544 37.12 16.3082 33.1703 8.66483L33.0187 8.35809C32.6135 7.59364 32.2083 6.77801 31.8036 5.96275C31.2969 5.04493 30.7904 4.0776 29.9805 3.1596C28.3596 1.12108 26.0309 0 23.5494 0C21.0177 0 18.7393 1.12108 17.068 3.05815C16.3089 3.97523 15.7519 4.94349 15.2455 5.86149C14.8403 6.67656 14.4351 7.4922 14.0301 8.25701L13.8783 8.5619C9.97966 16.2064 6.18184 23.9532 2.68787 31.5976L2.63738 31.6995C2.28268 32.5145 1.87749 33.3806 1.4723 34.2986C1.20141 34.9026 0.94825 35.5145 0.713137 36.1335C0.0545863 38.0187 -0.147734 39.8027 0.105258 41.6371C0.662649 45.4595 3.19441 48.6706 6.6882 50.0972C8.00438 50.6581 9.3716 50.9128 10.7897 50.9128C11.1947 50.9128 11.701 50.8618 12.1062 50.8104C13.7769 50.6062 15.4985 50.0467 17.1692 49.0779C19.2456 47.9058 21.2206 46.2243 23.4483 43.778C25.676 46.2243 27.7016 47.906 29.727 49.0779C31.3983 50.0467 33.1196 50.6062 34.7905 50.8104C35.1957 50.8618 35.7021 50.9128 36.1071 50.9128C37.525 50.9128 38.9425 50.6581 40.2086 50.0972C43.753 48.6706 46.2341 45.4087 46.7911 41.6371C47.1963 39.853 46.9934 38.0702 46.3354 36.1838L46.3356 36.1839Z" fill="#E0565B"/>
</g>
<defs>
<clipPath id="clip0_62_2788">
<rect width="47" height="51" fill="white"/>
</clipPath>
</defs>
</svg>
