<svg width="56" height="46" viewBox="0 0 56 46" fill="none" xmlns="http://www.w3.org/2000/svg">
<g clip-path="url(#clip0_62_2784)">
<path d="M28.0656 0C13.0506 0 1.28713 18.86 0.174133 34.7894C4.88601 42.8627 16.2485 45.8974 28.0661 45.8974C39.8827 45.8974 51.2459 42.8627 55.9554 34.7892C54.8422 18.86 43.0802 0 28.0658 0" fill="#B6DEFF"/>
<path d="M52.0319 30.9951C52.0319 30.9951 48.7157 23.9167 45.345 19.7871C41.9718 15.6557 37.8526 11.1572 35.417 11.1572C32.9828 11.1572 26.1779 23.052 23.0561 23.052C19.9337 23.052 18.311 17.6599 14.4721 17.6599C10.6318 17.6599 4.53038 30.6627 4.53038 30.6627L4.11694 32.8671C4.11694 32.8671 6.23663 42.145 28.4122 42.145C50.5886 42.145 52.3609 33.0193 52.3609 33.0193L52.0322 30.9949" fill="#66CC66"/>
<path d="M23.4037 28.1279C19.9597 28.1279 18.1942 24.7732 17.2369 22.7023C16.3762 20.8368 16.2272 17.8915 13.7849 17.809C14.0248 17.7151 14.2558 17.6596 14.4724 17.6596C18.3112 17.6596 19.9339 23.0517 23.0564 23.0517C26.1781 23.0517 32.983 11.1567 35.4173 11.1567C35.876 11.1567 36.3927 11.3166 36.9533 11.6008C36.5386 11.5468 36.0068 11.5843 35.5971 11.9901C34.8102 12.7672 27.6674 28.1279 23.4037 28.1279Z" fill="#17AD49"/>
</g>
<defs>
<clipPath id="clip0_62_2784">
<rect width="56" height="46" fill="white"/>
</clipPath>
</defs>
</svg>
